<?xml version="1.0" standalone="no"?><!DOCTYPE svg PUBLIC "-//W3C//DTD SVG 1.1//EN" "http://www.w3.org/Graphics/SVG/1.1/DTD/svg11.dtd"><svg t="1747123506250" class="icon" viewBox="0 0 1024 1024" version="1.1" xmlns="http://www.w3.org/2000/svg" p-id="2693" xmlns:xlink="http://www.w3.org/1999/xlink" width="200" height="200"><path d="M955.733333 0a68.266667 68.266667 0 0 1 68.266667 68.266667v642.218666a68.266667 68.266667 0 0 1-68.266667 68.266667l-389.853866-0.017067v164.693334h275.780266a34.133333 34.133333 0 0 1 34.133334 34.133333V989.866667a34.133333 34.133333 0 0 1-34.133334 34.133333H209.288533a34.133333 34.133333 0 0 1-34.133333-34.133333v-12.288a34.133333 34.133333 0 0 1 34.133333-34.133334l275.7632-0.017066v-164.693334H68.266667a68.266667 68.266667 0 0 1-68.266667-68.266666V68.266667a68.266667 68.266667 0 0 1 68.266667-68.266667h887.466666zM282.948267 404.206933a148.206933 148.206933 0 1 0 142.626133 188.654934l423.253333-0.017067a40.413867 40.413867 0 1 0 0-80.8448h-423.253333a148.2752 148.2752 0 0 0-142.626133-107.793067zM741.034667 107.793067a148.2752 148.2752 0 0 0-142.626134 107.776h-423.253333a40.413867 40.413867 0 0 0 0 80.8448h423.253333A148.206933 148.206933 0 1 0 741.034667 107.793067z" fill="#0A65DB" p-id="2694"></path><path d="M134.741333 215.586133m40.413867 0l431.172267 0q40.413867 0 40.413866 40.413867l0 0.017067q0 40.413867-40.413866 40.413866l-431.172267 0q-40.413867 0-40.413867-40.413866l0-0.017067q0-40.413867 40.413867-40.413867Z" fill="#FB780F" p-id="2695"></path><path d="M377.275733 512m40.413867 0l431.172267 0q40.413867 0 40.413866 40.413867l0 0.017066q0 40.413867-40.413866 40.413867l-431.172267 0q-40.413867 0-40.413867-40.413867l0-0.017066q0-40.413867 40.413867-40.413867Z" fill="#FB780F" p-id="2696"></path><path d="M741.051733 107.793067a148.206933 148.206933 0 1 1 0 296.413866 148.206933 148.206933 0 0 1 0-296.413866z m0 80.8448a67.362133 67.362133 0 1 0 0 134.741333 67.362133 67.362133 0 0 0 0-134.741333zM282.948267 404.206933a148.206933 148.206933 0 1 1 0 296.430934 148.206933 148.206933 0 0 1 0-296.430934z m0 80.8448a67.362133 67.362133 0 1 0 0 134.741334 67.362133 67.362133 0 0 0 0-134.741334z" fill="#FFFFFF" p-id="2697"></path><path d="M741.051733 256m-67.362133 0a67.362133 67.362133 0 1 0 134.724267 0 67.362133 67.362133 0 1 0-134.724267 0Z" fill="#0A65DB" p-id="2698"></path><path d="M282.948267 552.413867m-67.362134 0a67.362133 67.362133 0 1 0 134.724267 0 67.362133 67.362133 0 1 0-134.724267 0Z" fill="#0A65DB" p-id="2699"></path></svg>